<!DOCTYPE svg PUBLIC "-//W3C//DTD SVG 20010904//EN" "http://www.w3.org/TR/2001/REC-SVG-20010904/DTD/svg10.dtd">
<svg version="1.0" xmlns="http://www.w3.org/2000/svg" width="700px" height="700px" viewBox="0 0 7000 7000" preserveAspectRatio="xMidYMid meet">
<g id="layer101" fill="#5e5e5e" stroke="none">
<path d="M3135 6750 c-196 -23 -250 -33 -430 -80 -479 -124 -897 -334 -1270 -639 -472 -385 -840 -908 -1031 -1464 -131 -383 -179 -675 -179 -1097 0 -291 13 -418 66 -680 246 -1198 1150 -2155 2348 -2486 146 -40 182 -42 236 -11 73 42 103 130 69 204 -25 52 -70 79 -179 108 -540 144 -973 391 -1356 774 -519 519 -810 1168 -861 1919 -25 377 31 789 158 1154 146 418 374 783 695 1112 l118 120 92 -124 c50 -69 113 -154 139 -189 l48 -65 -81 -80 c-309 -312 -537 -724 -643 -1165 -20 -79 -38 -181 -41 -227 -5 -72 -3 -86 15 -116 44 -71 151 -100 220 -58 42 26 69 72 82 140 55 294 106 453 212 664 274 546 805 974 1395 1126 178 46 282 61 479 67 354 11 657 -47 962 -184 671 -303 1141 -909 1267 -1635 18 -104 32 -135 74 -171 60 -50 146 -43 209 16 64 61 63 117 -5 397 -56 231 -157 478 -277 677 -31 51 -56 97 -56 102 0 5 69 60 153 122 83 62 166 123 183 136 l31 23 66 -107 c225 -371 365 -778 419 -1213 17 -136 17 -544 0 -680 -44 -359 -166 -746 -334 -1060 -119 -223 -304 -474 -487 -664 -106 -109 -235 -226 -249 -226 -6 0 -213 276 -255 341 l-18 27 132 129 c239 233 398 457 533 752 95 208 188 526 190 653 1 75 -14 105 -75 146 -45 31 -129 28 -176 -7 -40 -30 -58 -72 -83 -200 -79 -396 -293 -793 -585 -1087 -515 -517 -1245 -739 -1967 -598 -315 61 -610 190 -871 380 -88 64 -249 207 -301 268 l-46 54 163 120 162 120 85 -82 c481 -461 1157 -617 1783 -412 446 146 832 482 1045 911 179 363 223 830 115 1235 -110 416 -380 784 -753 1030 -188 123 -356 192 -600 246 -157 35 -442 44 -608 20 -263 -39 -502 -127 -712 -264 -301 -195 -551 -496 -679 -817 -89 -223 -121 -381 -128 -625 -10 -326 49 -583 198 -869 33 -63 58 -115 57 -116 -24 -20 -319 -235 -322 -235 -2 0 -26 37 -52 81 -112 192 -216 478 -254 702 -19 110 -76 167 -168 167 -74 0 -131 -43 -152 -115 -14 -49 0 -139 55 -341 82 -302 212 -565 409 -834 90 -123 353 -386 481 -481 505 -378 1103 -551 1725 -500 380 31 783 161 1086 349 l48 31 101 -137 c55 -75 117 -160 138 -189 l38 -52 -120 -71 c-418 -247 -879 -382 -1398 -408 -176 -9 -191 -13 -237 -76 -29 -39 -29 -133 0 -173 46 -62 76 -73 198 -73 503 1 1067 152 1529 411 805 451 1370 1185 1601 2082 67 260 96 501 96 801 -1 763 -247 1465 -723 2061 -256 320 -783 755 -914 755 -45 0 -109 -36 -133 -75 -32 -52 -35 -103 -8 -155 19 -37 45 -60 154 -135 73 -49 176 -126 230 -169 95 -78 317 -294 354 -346 l19 -27 -185 -135 -185 -136 -117 117 c-211 211 -423 363 -687 492 -614 299 -1301 337 -1940 107 -154 -56 -370 -163 -505 -251 l-114 -75 -67 91 c-37 51 -98 135 -137 187 l-69 94 56 40 c236 166 560 321 837 401 576 167 1166 163 1731 -11 78 -24 155 -44 170 -44 71 1 152 85 153 158 0 44 -25 96 -62 127 -78 66 -566 180 -872 205 -191 15 -478 11 -651 -10z"/>
</g>
<g id="layer102" fill="#04a3fe" stroke="none">
<path d="M3135 6750 c-196 -23 -250 -33 -430 -80 -479 -124 -897 -334 -1270 -639 -472 -385 -840 -908 -1031 -1464 -131 -383 -179 -675 -179 -1097 0 -291 13 -418 66 -680 246 -1198 1150 -2155 2348 -2486 146 -40 182 -42 236 -11 73 42 103 130 69 204 -25 52 -70 79 -179 108 -540 144 -973 391 -1356 774 -519 519 -810 1168 -861 1919 -25 377 31 789 158 1154 146 418 374 783 695 1112 l118 120 92 -124 c50 -69 113 -154 139 -189 l48 -65 -81 -80 c-309 -312 -537 -724 -643 -1165 -20 -79 -38 -181 -41 -227 -5 -72 -3 -86 15 -116 44 -71 151 -100 220 -58 42 26 69 72 82 140 55 294 106 453 212 664 274 546 805 974 1395 1126 178 46 282 61 479 67 354 11 657 -47 962 -184 671 -303 1141 -909 1267 -1635 18 -104 32 -135 74 -171 60 -50 146 -43 209 16 64 61 63 117 -5 397 -56 231 -157 478 -277 677 -31 51 -56 97 -56 102 0 5 69 60 153 122 83 62 166 123 183 136 l31 23 66 -107 c225 -371 365 -778 419 -1213 17 -136 17 -544 0 -680 -44 -359 -166 -746 -334 -1060 -119 -223 -304 -474 -487 -664 -106 -109 -235 -226 -249 -226 -6 0 -213 276 -255 341 l-18 27 132 129 c239 233 398 457 533 752 95 208 188 526 190 653 1 75 -14 105 -75 146 -45 31 -129 28 -176 -7 -40 -30 -58 -72 -83 -200 -79 -396 -293 -793 -585 -1087 -515 -517 -1245 -739 -1967 -598 -315 61 -610 190 -871 380 -88 64 -249 207 -301 268 l-46 54 163 120 162 120 85 -82 c481 -461 1157 -617 1783 -412 446 146 832 482 1045 911 179 363 223 830 115 1235 -110 416 -380 784 -753 1030 -188 123 -356 192 -600 246 -157 35 -442 44 -608 20 -263 -39 -502 -127 -712 -264 -301 -195 -551 -496 -679 -817 -89 -223 -121 -381 -128 -625 -10 -326 49 -583 198 -869 33 -63 58 -115 57 -116 -24 -20 -319 -235 -322 -235 -2 0 -26 37 -52 81 -112 192 -216 478 -254 702 -19 110 -76 167 -168 167 -74 0 -131 -43 -152 -115 -14 -49 0 -139 55 -341 82 -302 212 -565 409 -834 90 -123 353 -386 481 -481 505 -378 1103 -551 1725 -500 380 31 783 161 1086 349 l48 31 101 -137 c55 -75 117 -160 138 -189 l38 -52 -120 -71 c-418 -247 -879 -382 -1398 -408 -176 -9 -191 -13 -237 -76 -29 -39 -29 -133 0 -173 46 -62 76 -73 198 -73 503 1 1067 152 1529 411 805 451 1370 1185 1601 2082 67 260 96 501 96 801 -1 763 -247 1465 -723 2061 -256 320 -783 755 -914 755 -45 0 -109 -36 -133 -75 -32 -52 -35 -103 -8 -155 19 -37 45 -60 154 -135 73 -49 176 -126 230 -169 95 -78 317 -294 354 -346 l19 -27 -185 -135 -185 -136 -117 117 c-211 211 -423 363 -687 492 -614 299 -1301 337 -1940 107 -154 -56 -370 -163 -505 -251 l-114 -75 -67 91 c-37 51 -98 135 -137 187 l-69 94 56 40 c236 166 560 321 837 401 576 167 1166 163 1731 -11 78 -24 155 -44 170 -44 71 1 152 85 153 158 0 44 -25 96 -62 127 -78 66 -566 180 -872 205 -191 15 -478 11 -651 -10z m471 -2659 c49 -22 111 -92 124 -140 5 -20 10 -136 10 -258 l0 -223 34 -44 c71 -93 90 -213 52 -324 -24 -70 -100 -153 -174 -189 -49 -23 -69 -27 -142 -27 -99 1 -154 21 -221 81 -134 121 -152 303 -45 453 l35 48 3 239 c3 223 4 241 25 279 24 46 72 90 118 110 44 19 133 17 181 -5z"/>
</g>
<g id="layer103" fill="#3376fd" stroke="none">
<path d="M3135 6750 c-196 -23 -251 -33 -430 -80 -479 -124 -897 -334 -1270 -639 -472 -385 -840 -908 -1031 -1464 -131 -383 -179 -675 -179 -1097 0 -291 13 -418 66 -680 246 -1198 1150 -2155 2348 -2486 146 -40 182 -42 236 -11 73 42 103 130 69 204 -25 52 -70 79 -179 108 -540 144 -973 391 -1356 774 -519 519 -810 1168 -861 1919 -25 377 31 789 158 1154 146 418 374 783 695 1112 l118 120 92 -124 c50 -69 113 -154 139 -189 l48 -65 -81 -80 c-309 -312 -537 -724 -643 -1165 -20 -79 -38 -181 -41 -227 -5 -72 -3 -86 15 -116 44 -71 151 -100 220 -58 42 26 69 72 82 140 43 227 79 358 136 498 173 418 450 754 826 1002 260 171 545 284 852 336 127 22 427 29 567 15 388 -40 764 -186 1071 -414 43 -31 80 -57 83 -57 3 0 19 -16 36 -35 17 -19 34 -35 38 -35 8 0 191 -181 191 -189 0 -3 22 -30 49 -58 27 -29 51 -59 55 -68 3 -8 10 -15 16 -15 5 0 10 -6 10 -14 0 -7 11 -25 25 -40 13 -14 21 -26 17 -26 -4 0 2 -7 13 -16 11 -8 18 -17 16 -20 -2 -3 7 -20 20 -37 13 -18 24 -34 24 -37 0 -3 9 -21 21 -40 11 -19 22 -39 23 -45 6 -19 44 -90 51 -95 13 -9 30 -48 30 -69 0 -10 3 -21 8 -23 21 -9 114 -339 141 -502 14 -82 30 -115 70 -149 63 -53 149 -43 213 24 38 41 59 113 42 141 -5 7 -7 23 -6 35 2 11 -1 24 -7 27 -6 4 -8 13 -4 21 3 8 2 23 -2 33 -4 9 -9 31 -11 47 -2 17 -7 37 -10 45 -4 8 -8 24 -9 36 -7 45 -49 184 -56 184 -5 0 -6 7 -3 15 4 8 1 15 -5 15 -6 0 -11 8 -11 18 0 25 -32 112 -42 112 -4 0 -8 11 -8 25 0 14 -4 25 -10 25 -5 0 -10 6 -10 14 0 17 -40 109 -51 116 -4 3 -9 12 -11 20 -2 8 -14 30 -26 48 -13 18 -25 39 -26 47 -1 8 -10 23 -21 35 -10 11 -14 20 -9 20 5 0 0 7 -10 15 -11 8 -16 15 -11 15 5 0 -2 11 -14 24 l-23 25 34 33 c18 19 41 37 51 41 9 3 17 11 17 17 0 5 7 10 15 10 7 0 18 6 22 13 4 8 16 17 26 20 10 4 16 11 13 16 -3 5 1 14 9 21 13 11 14 10 8 -6 -6 -17 -5 -17 10 -5 10 8 15 16 13 19 -3 2 1 14 9 26 16 22 21 61 6 52 -5 -3 -22 11 -37 32 -16 20 -46 56 -67 79 -22 24 -34 44 -27 48 21 13 9 27 -20 23 -17 -3 -30 0 -30 6 -1 6 -9 1 -19 -11 -10 -12 -20 -20 -23 -18 -2 3 -19 -9 -37 -25 -18 -17 -37 -30 -42 -30 -5 0 -12 -7 -15 -15 -4 -8 -13 -15 -20 -15 -8 0 -17 -7 -20 -15 -4 -8 -10 -13 -14 -10 -5 3 -15 -3 -22 -13 -7 -9 -17 -17 -23 -17 -19 1 -55 26 -55 38 0 14 -140 157 -154 157 -5 0 -24 18 -43 40 -19 22 -40 40 -46 40 -7 0 -18 9 -25 20 -7 11 -18 20 -25 20 -7 0 -18 9 -25 21 -7 12 -16 19 -18 16 -3 -3 -19 8 -36 24 -17 15 -35 26 -40 23 -4 -3 -8 -1 -8 4 0 5 -25 26 -55 46 -30 20 -55 33 -55 29 0 -3 -11 4 -25 17 -14 13 -25 20 -25 16 0 -4 -10 2 -22 14 -12 11 -24 20 -27 21 -29 4 -44 10 -67 28 -15 12 -44 26 -65 31 -21 6 -44 16 -51 23 -19 19 -132 67 -157 67 -11 0 -21 4 -21 8 0 24 -338 110 -534 137 -579 78 -1188 -59 -1676 -378 l-114 -75 -67 91 c-37 51 -98 135 -137 187 l-69 94 56 40 c109 76 328 201 442 252 354 159 652 234 1049 265 134 10 446 7 480 -5 8 -3 47 -8 85 -12 113 -10 118 -11 163 -23 24 -7 57 -14 75 -15 18 -2 39 -6 47 -10 8 -3 31 -8 50 -10 19 -3 37 -6 40 -7 3 -1 10 -3 15 -4 6 -1 23 -7 38 -14 16 -6 32 -9 37 -6 5 3 10 2 12 -2 5 -12 170 -63 200 -63 35 0 59 10 52 21 -3 5 1 6 9 4 7 -3 24 3 38 14 23 18 25 26 24 100 0 77 7 103 17 63 6 -22 2 -80 -7 -107 -3 -11 1 -7 10 9 25 42 15 108 -23 154 -20 26 -36 36 -51 34 -14 -2 -21 2 -21 12 0 9 -5 16 -11 16 -5 0 -7 -6 -4 -12 4 -7 0 -5 -8 5 -16 20 -31 23 -22 5 4 -7 0 -5 -8 5 -16 20 -31 23 -22 5 4 -7 0 -5 -8 5 -16 20 -31 23 -22 5 4 -7 0 -5 -8 5 -16 20 -32 23 -21 5 4 -7 -2 -5 -13 5 -12 10 -31 20 -44 21 -13 2 -36 8 -51 14 -15 6 -43 13 -61 15 -18 2 -38 7 -46 11 -7 4 -15 5 -18 2 -3 -3 -12 -1 -19 5 -8 6 -20 9 -29 6 -8 -4 -17 -2 -21 4 -3 5 -13 9 -22 8 -10 -1 -25 1 -34 6 -10 4 -25 5 -33 2 -8 -4 -17 -2 -21 4 -3 6 -16 9 -27 8 -12 -1 -30 1 -39 6 -10 4 -25 5 -33 2 -8 -4 -17 -2 -20 4 -4 5 -23 10 -43 10 -20 0 -62 3 -92 5 -30 3 -161 7 -290 9 -181 2 -269 -1 -385 -15z"/>
<path d="M3245 5235 c-256 -42 -493 -131 -695 -263 -301 -195 -551 -496 -679 -817 -89 -223 -121 -381 -128 -625 -10 -326 49 -583 198 -869 33 -63 58 -115 57 -116 -24 -20 -319 -235 -322 -235 -2 0 -26 37 -52 81 -112 192 -216 478 -254 702 -19 110 -76 167 -168 167 -74 0 -131 -43 -152 -115 -14 -49 0 -139 55 -341 82 -302 212 -565 409 -834 90 -123 353 -386 481 -481 505 -378 1103 -551 1725 -500 380 31 783 161 1086 349 l48 31 101 -137 c55 -75 117 -160 138 -189 l38 -52 -120 -71 c-418 -247 -879 -382 -1398 -408 -176 -9 -191 -13 -237 -76 -29 -39 -29 -133 0 -173 46 -62 76 -73 198 -73 658 1 1362 244 1913 661 611 463 1024 1085 1218 1835 19 75 37 152 39 172 2 21 7 45 11 54 4 10 5 23 2 30 -2 7 0 21 4 30 5 9 12 45 15 80 3 35 8 90 12 123 4 52 7 508 2 590 -3 66 -11 99 -21 84 -7 -11 -9 -11 -9 4 0 9 5 17 10 17 13 0 13 47 1 54 -5 4 -11 0 -14 -6 -2 -7 -8 1 -11 17 -4 17 -13 43 -21 58 -8 16 -15 36 -15 45 0 12 -3 13 -11 5 -8 -8 -43 29 -129 136 -127 158 -150 182 -151 160 0 -8 -14 20 -30 61 -17 41 -37 81 -46 88 -9 6 -13 12 -9 12 5 0 3 7 -4 15 -7 8 -9 15 -5 15 4 0 2 6 -4 13 -6 8 -7 18 -3 23 4 4 -2 2 -12 -6 -18 -14 -19 -13 -13 3 4 11 3 16 -3 12 -16 -10 -12 -38 5 -31 9 3 15 0 15 -10 0 -9 -5 -12 -12 -8 -7 4 -5 -2 5 -13 9 -11 14 -22 11 -26 -7 -6 33 -135 47 -153 5 -6 6 -13 4 -16 -3 -3 0 -18 6 -34 7 -16 11 -33 10 -38 -1 -4 3 -14 9 -20 5 -7 7 -16 4 -19 -3 -3 -2 -11 2 -18 4 -8 9 -29 11 -48 2 -19 8 -40 13 -46 6 -7 7 -15 4 -18 -4 -3 -3 -14 1 -24 4 -10 9 -27 11 -38 1 -11 5 -33 7 -50 3 -16 8 -57 11 -90 3 -33 8 -75 11 -93 20 -116 20 -489 0 -605 -3 -17 -7 -57 -10 -87 -8 -103 -64 -346 -116 -505 -146 -451 -376 -836 -698 -1169 -106 -109 -235 -226 -249 -226 -6 0 -213 276 -255 341 l-18 27 132 129 c239 233 398 457 533 752 95 208 188 526 190 653 1 75 -14 105 -75 146 -45 31 -129 28 -176 -7 -40 -30 -58 -72 -83 -200 -79 -396 -293 -793 -585 -1087 -515 -517 -1245 -739 -1967 -598 -315 61 -610 190 -871 380 -88 64 -249 207 -301 268 l-46 54 163 120 162 120 85 -82 c481 -461 1157 -617 1783 -412 446 146 832 482 1045 911 179 363 223 830 115 1235 -110 416 -380 784 -753 1030 -188 123 -355 192 -600 246 -98 22 -145 27 -325 30 -151 2 -235 -1 -300 -11z m361 -1144 c49 -22 111 -92 124 -140 5 -20 10 -136 10 -258 l0 -223 34 -44 c71 -93 90 -213 52 -324 -24 -70 -100 -153 -174 -189 -49 -23 -69 -27 -142 -27 -99 1 -154 21 -221 81 -134 121 -152 303 -45 453 l35 48 3 239 c3 223 4 241 25 279 24 46 72 90 118 110 44 19 133 17 181 -5z"/>
</g>
<g id="layer104" fill="#5556fb" stroke="none">
<path d="M2162 6482 c-18 -10 -29 -21 -25 -25 4 -5 0 -5 -10 -2 -31 12 -322 -152 -518 -292 -558 -397 -989 -969 -1205 -1596 -131 -383 -179 -675 -179 -1097 0 -291 13 -418 66 -680 246 -1198 1150 -2155 2348 -2486 146 -40 182 -42 236 -11 73 42 103 130 69 204 -25 52 -70 79 -179 108 -540 144 -973 391 -1356 774 -519 519 -810 1168 -861 1919 -25 377 31 789 158 1154 146 418 374 783 695 1112 l118 120 92 -124 c50 -69 113 -154 139 -189 l48 -65 -81 -80 c-309 -312 -537 -724 -643 -1165 -20 -79 -38 -181 -41 -227 -5 -72 -3 -86 15 -116 44 -71 151 -100 220 -58 42 26 69 72 82 140 55 294 106 453 212 664 260 518 745 927 1308 1102 97 31 124 48 37 23 -39 -11 -62 -5 -39 10 9 6 3 19 -25 48 -90 94 -150 163 -142 163 5 0 9 5 9 11 0 6 -7 8 -17 4 -13 -4 -15 -3 -8 4 6 6 42 22 80 35 39 14 65 25 58 25 -7 1 -70 -20 -140 -45 -170 -61 -382 -165 -523 -257 l-114 -75 -67 91 c-37 51 -98 135 -137 187 l-69 94 56 40 c94 66 301 187 394 231 48 22 84 45 80 50 -4 4 -2 5 5 1 7 -5 27 -2 43 4 36 15 32 25 -5 11 -30 -12 -32 -9 -10 13 14 14 8 24 -56 101 -40 47 -76 85 -81 85 -4 0 -6 6 -3 14 3 8 -1 20 -9 27 -13 12 -12 16 7 26 33 19 5 14 -32 -5z"/>
<path d="M3175 5223 c-251 -56 -443 -133 -625 -251 -301 -195 -551 -496 -679 -817 -89 -223 -121 -381 -128 -625 -10 -326 49 -583 198 -869 33 -63 58 -115 57 -116 -24 -20 -319 -235 -322 -235 -2 0 -26 37 -52 81 -112 192 -216 478 -254 702 -19 110 -76 167 -168 167 -74 0 -131 -43 -152 -115 -14 -49 0 -139 55 -341 82 -302 212 -565 409 -834 90 -123 353 -386 481 -481 505 -378 1103 -551 1725 -500 380 31 783 161 1086 349 l48 31 101 -137 c55 -75 117 -160 138 -189 l38 -52 -120 -71 c-418 -247 -879 -382 -1398 -408 -176 -9 -191 -13 -237 -76 -29 -39 -29 -133 0 -173 46 -62 76 -73 198 -73 226 0 531 41 752 100 528 141 969 378 1381 742 159 141 411 418 398 438 -3 5 0 12 6 16 8 4 9 3 5 -4 -4 -7 -5 -12 -3 -12 5 0 138 184 152 210 15 28 -11 -4 -70 -88 -33 -46 -62 -85 -66 -87 -3 -3 -2 12 4 33 9 35 7 39 -39 92 -27 30 -64 70 -82 89 -18 19 -31 40 -28 46 2 7 0 17 -6 23 -6 6 -2 22 14 48 64 103 49 86 -49 -53 -114 -162 -224 -292 -371 -435 -120 -117 -178 -166 -186 -157 -11 13 -235 319 -250 341 l-17 26 132 129 c171 167 358 399 343 426 -4 7 -4 9 1 5 5 -5 18 7 30 25 34 50 77 127 72 127 -3 0 -23 -31 -46 -70 -45 -76 -59 -89 -38 -38 15 38 11 78 -7 78 -7 0 -37 31 -67 70 -30 38 -60 69 -67 70 -7 0 -12 6 -11 13 1 6 1 23 0 36 -1 24 -1 24 -16 5 -14 -18 -15 -17 -5 8 5 15 18 45 30 67 11 22 20 44 20 48 0 4 -24 -37 -53 -92 -106 -201 -224 -362 -382 -521 -515 -517 -1245 -739 -1967 -598 -315 61 -610 190 -871 380 -88 64 -249 207 -301 268 l-46 54 163 120 162 120 85 -82 c481 -461 1157 -617 1783 -412 462 151 860 508 1062 951 43 93 44 109 4 35 -17 -30 -27 -46 -23 -35 3 11 7 29 8 40 0 11 4 22 8 25 10 8 -2 51 -12 45 -5 -3 -37 30 -71 72 -35 43 -71 86 -81 96 -10 10 -18 27 -18 37 0 11 -4 20 -10 20 -5 0 -10 10 -10 23 0 18 2 19 11 7 8 -12 9 -11 5 5 -3 11 1 59 9 105 59 336 1 678 -165 974 -27 49 -47 93 -43 99 3 5 1 7 -5 3 -6 -3 -20 7 -31 23 -23 31 -27 46 -11 36 16 -10 11 1 -7 16 -15 12 -16 12 -9 -1 5 -8 -15 12 -44 45 -129 145 -233 233 -382 320 -224 133 -440 192 -727 200 -85 3 -156 6 -158 9 -3 2 5 7 16 11 21 6 21 6 -2 29 -12 12 -50 57 -85 99 -34 42 -66 77 -71 77 -5 0 -7 9 -4 20 5 17 0 20 -28 21 -33 1 -33 1 11 14 43 12 23 19 -25 8z m431 -1132 c49 -22 111 -92 124 -140 5 -20 10 -136 10 -258 l0 -223 34 -44 c71 -93 90 -213 52 -324 -24 -70 -100 -153 -174 -189 -49 -23 -69 -27 -142 -27 -99 1 -154 21 -221 81 -134 121 -152 303 -45 453 l35 48 3 239 c3 223 4 241 25 279 24 46 72 90 118 110 44 19 133 17 181 -5z"/>
</g>
<g id="layer105" fill="#1493ff" stroke="none">
<path d="M3170 6755 c-167 -19 -330 -47 -330 -55 0 -5 -10 -6 -22 -3 -20 4 -21 3 -5 -7 9 -6 27 -8 38 -5 15 5 19 4 15 -4 -4 -6 -15 -11 -24 -12 -14 0 -13 -2 3 -9 14 -6 15 -9 5 -10 -12 -1 -12 -3 1 -8 18 -7 155 -172 143 -172 -3 0 -1 -7 7 -16 10 -13 10 -17 -1 -24 -9 -6 -2 -11 24 -16 21 -3 41 -3 45 2 3 5 24 9 46 9 22 1 111 7 199 14 146 12 448 10 486 -3 8 -3 47 -8 85 -12 113 -10 118 -11 163 -23 24 -7 57 -14 75 -15 18 -2 39 -6 47 -10 8 -3 31 -8 50 -10 19 -3 37 -6 40 -7 3 -1 10 -3 15 -4 6 -1 23 -7 38 -14 16 -6 32 -9 37 -6 5 3 10 2 12 -2 5 -12 170 -63 200 -63 35 0 59 10 52 21 -3 5 1 6 9 4 7 -3 24 3 38 14 23 18 25 26 24 100 0 77 7 103 17 63 6 -22 2 -80 -7 -107 -3 -11 1 -7 10 9 25 42 15 108 -23 154 -20 26 -36 36 -51 34 -14 -2 -21 2 -21 12 0 9 -5 16 -11 16 -5 0 -7 -6 -4 -12 4 -7 0 -5 -8 5 -16 20 -31 23 -22 5 4 -7 0 -5 -8 5 -16 20 -31 23 -22 5 4 -7 0 -5 -8 5 -16 20 -31 23 -22 5 4 -7 0 -5 -8 5 -16 20 -32 23 -21 5 4 -7 -2 -5 -13 5 -12 10 -31 20 -44 21 -13 2 -36 8 -51 14 -15 6 -43 13 -61 15 -18 2 -38 7 -46 11 -7 4 -15 5 -18 2 -3 -3 -12 -1 -19 5 -8 6 -20 9 -29 6 -8 -4 -17 -2 -21 4 -3 5 -13 9 -22 8 -10 -1 -25 1 -34 6 -10 4 -25 5 -33 2 -8 -4 -17 -2 -21 4 -3 6 -16 9 -27 8 -12 -1 -30 1 -39 6 -10 4 -25 5 -33 2 -8 -4 -17 -2 -20 4 -4 5 -23 10 -43 10 -20 0 -62 3 -92 5 -135 12 -531 11 -640 -1z"/>
<path d="M5026 6115 c4 -11 12 -23 18 -27 7 -5 4 -8 -6 -8 -10 0 -18 -4 -18 -9 0 -15 51 -71 60 -66 4 3 11 -2 14 -11 3 -8 11 -12 16 -9 8 5 7 11 -1 21 -8 10 -8 14 0 14 6 0 11 -4 11 -10 0 -5 3 -9 8 -8 4 1 18 -3 32 -10 20 -10 18 -8 -5 9 -16 12 -54 48 -83 78 -29 31 -50 47 -46 36z"/>
<path d="M3404 5981 c6 -9 -13 -10 -76 -7 l-83 5 94 -11 c60 -7 89 -13 80 -19 -11 -7 -10 -9 4 -9 10 0 15 -4 12 -10 -3 -5 -2 -10 4 -10 11 0 156 -180 156 -194 0 -5 7 -12 15 -15 8 -3 16 -14 18 -23 2 -12 -6 -18 -30 -21 -19 -3 -10 -5 22 -4 30 0 62 -3 70 -6 8 -4 47 -8 85 -11 39 -2 77 -6 85 -9 8 -3 62 -15 120 -27 287 -61 581 -194 824 -374 42 -31 78 -56 81 -56 3 0 19 -16 36 -35 17 -19 34 -35 38 -35 8 0 191 -181 191 -189 0 -3 22 -30 49 -58 27 -29 51 -59 55 -68 3 -8 10 -15 16 -15 5 0 10 -6 10 -14 0 -7 11 -25 25 -40 13 -14 21 -26 17 -26 -4 0 1 -7 11 -14 10 -8 17 -17 16 -21 -1 -4 9 -21 22 -38 13 -18 24 -34 24 -37 0 -3 11 -23 24 -45 13 -22 22 -40 21 -40 -5 0 42 -90 50 -95 13 -9 30 -48 30 -69 0 -10 3 -21 8 -23 21 -9 114 -339 141 -502 14 -82 30 -115 70 -149 63 -53 149 -43 213 24 38 41 59 113 42 141 -5 7 -7 23 -6 35 2 11 -1 24 -7 27 -6 4 -8 13 -4 21 3 8 2 23 -2 33 -4 9 -9 31 -11 47 -2 17 -7 37 -10 45 -4 8 -8 24 -9 36 -7 45 -49 184 -56 184 -5 0 -6 7 -3 15 4 8 1 15 -5 15 -6 0 -11 8 -11 18 0 25 -32 112 -42 112 -4 0 -8 11 -8 25 0 14 -4 25 -10 25 -5 0 -10 6 -10 14 0 17 -40 109 -51 116 -4 3 -9 12 -11 20 -2 8 -14 30 -26 48 -13 18 -25 39 -26 47 -1 8 -10 23 -21 35 -10 11 -14 20 -9 20 5 0 0 7 -10 15 -11 8 -16 15 -11 15 5 0 -2 11 -14 24 l-23 25 36 35 c19 20 40 36 46 36 6 0 13 7 16 15 4 8 13 15 20 15 8 0 17 6 20 14 3 8 15 16 26 19 11 3 17 10 14 15 -3 5 1 15 9 22 13 11 14 10 8 -6 -6 -17 -5 -17 10 -5 10 8 15 16 13 19 -3 2 1 14 9 26 16 22 21 61 6 52 -5 -3 -22 11 -37 32 -16 20 -46 56 -67 79 -22 24 -34 44 -27 48 21 13 9 27 -20 23 -17 -3 -30 0 -30 6 -1 6 -9 1 -19 -11 -10 -12 -20 -20 -23 -18 -2 3 -19 -9 -37 -25 -18 -17 -37 -30 -42 -30 -5 0 -12 -7 -15 -15 -4 -8 -13 -15 -20 -15 -8 0 -17 -7 -20 -15 -4 -8 -10 -13 -14 -10 -5 3 -15 -3 -22 -13 -7 -9 -17 -17 -23 -17 -19 1 -55 26 -55 38 0 14 -140 157 -154 157 -5 0 -24 18 -43 40 -19 22 -40 40 -46 40 -7 0 -18 9 -25 20 -7 11 -18 20 -25 20 -7 0 -18 9 -25 21 -7 12 -16 19 -18 16 -3 -3 -19 8 -36 24 -17 15 -35 26 -40 23 -4 -3 -8 -1 -8 4 0 5 -25 26 -55 46 -30 20 -55 33 -55 29 0 -3 -11 4 -25 17 -14 13 -25 20 -25 16 0 -4 -10 2 -22 14 -12 11 -24 20 -27 21 -29 4 -44 10 -67 28 -15 12 -44 26 -65 31 -21 6 -44 16 -51 23 -19 19 -132 67 -157 67 -11 0 -21 4 -21 8 0 24 -335 109 -534 137 -147 20 -441 31 -432 16z"/>
<path d="M6287 4573 c-13 -13 -7 -35 8 -29 9 3 15 0 15 -10 0 -9 -5 -12 -12 -8 -7 4 -5 -2 5 -13 9 -11 14 -22 11 -26 -7 -6 33 -135 47 -153 5 -6 6 -13 4 -16 -3 -3 0 -18 6 -34 7 -16 11 -33 10 -38 -1 -4 3 -14 9 -20 5 -7 7 -16 4 -19 -3 -3 -2 -11 2 -18 4 -8 9 -29 11 -48 2 -19 8 -40 13 -46 6 -7 7 -15 4 -18 -4 -3 -3 -14 1 -24 4 -10 9 -27 11 -38 1 -11 5 -33 7 -50 3 -16 8 -57 11 -90 3 -33 8 -75 11 -93 20 -116 20 -489 0 -605 -3 -17 -7 -57 -10 -87 -6 -76 -59 -328 -89 -424 -14 -44 -23 -83 -20 -88 3 -4 1 -8 -4 -8 -16 0 -33 -72 -20 -87 8 -11 7 -12 -6 -7 -19 7 -21 -7 -3 -25 10 -10 9 -11 -5 -6 -11 4 -18 2 -18 -4 0 -6 6 -11 13 -11 9 0 12 -9 9 -29 -3 -21 3 -35 25 -57 45 -44 113 -130 113 -143 0 -6 6 -11 13 -11 31 0 35 -21 17 -81 -10 -32 -15 -59 -10 -59 7 0 67 131 72 160 2 8 6 17 10 20 35 27 211 630 193 660 -3 5 0 12 5 15 6 4 10 17 9 28 -2 12 1 32 5 44 4 12 9 48 12 80 3 32 8 85 12 118 4 52 7 508 2 590 -3 66 -11 99 -21 84 -7 -11 -9 -11 -9 4 0 9 5 17 10 17 13 0 13 47 1 54 -5 4 -11 0 -14 -6 -2 -7 -8 1 -11 17 -4 17 -13 43 -21 58 -8 16 -15 36 -15 45 0 12 -3 13 -11 5 -8 -8 -43 29 -129 136 -127 158 -150 182 -151 160 0 -8 -14 20 -30 61 -17 41 -37 81 -46 88 -9 6 -13 12 -9 12 5 0 3 7 -4 15 -7 8 -9 15 -5 15 4 0 2 6 -4 13 -6 8 -7 18 -3 23 4 4 -2 2 -12 -6 -18 -14 -19 -13 -13 3 7 18 5 21 -6 10z"/>
</g>
<g id="layer106" fill="#4565fc" stroke="none">
<path d="M2162 6482 c-18 -10 -29 -21 -25 -25 4 -5 0 -5 -10 -2 -28 11 -400 -195 -473 -262 -13 -12 -24 -19 -24 -15 -1 4 -12 -6 -26 -23 -15 -16 -23 -23 -18 -15 7 13 5 13 -9 1 -18 -14 -13 -36 5 -25 7 5 9 0 6 -14 -4 -13 2 -30 14 -44 11 -13 40 -48 64 -79 25 -31 56 -62 69 -69 18 -9 23 -19 20 -34 -4 -15 7 -34 35 -64 22 -24 40 -48 40 -54 0 -6 7 -8 15 -5 8 4 17 1 21 -5 4 -7 3 -8 -4 -4 -16 10 -15 -9 1 -26 7 -7 16 -21 20 -32 4 -10 13 -16 21 -13 10 4 12 0 9 -14 -5 -17 5 -24 30 -20 5 1 6 -3 2 -9 -6 -9 63 -112 84 -124 18 -11 4 27 -14 40 -10 8 -20 20 -21 28 -3 20 -54 86 -66 86 -5 0 -7 4 -3 9 3 5 -5 17 -17 26 -13 8 -24 20 -24 25 -1 6 -2 14 -3 19 0 5 -20 28 -42 51 -23 24 -36 40 -28 36 8 -4 2 3 -13 16 -16 13 -28 28 -28 33 1 22 359 241 476 291 36 15 61 31 57 37 -4 6 -1 7 6 3 7 -5 26 -2 42 4 36 15 32 25 -5 11 -30 -12 -32 -9 -10 13 14 14 8 24 -56 101 -40 47 -76 85 -81 85 -4 0 -6 6 -3 14 3 8 -1 20 -9 27 -13 12 -12 16 7 26 33 19 5 14 -32 -5z"/>
<path d="M2672 5840 c-213 -78 -498 -226 -564 -292 -10 -10 -21 -17 -25 -15 -5 1 -10 -9 -11 -22 -2 -14 0 -21 7 -17 7 4 9 1 5 -8 -8 -20 104 -163 134 -172 20 -6 21 -8 9 -23 -7 -9 -12 -24 -10 -33 3 -14 23 -5 101 47 171 111 362 202 552 261 97 31 124 48 37 23 -39 -11 -62 -5 -39 10 9 6 3 19 -25 48 -90 94 -150 163 -142 163 5 0 9 5 9 11 0 6 -7 8 -17 4 -13 -4 -15 -3 -8 4 6 6 42 22 80 35 39 14 63 25 55 25 -8 0 -75 -22 -148 -49z"/>
<path d="M3175 5223 c-180 -40 -341 -95 -481 -166 -80 -40 -248 -149 -260 -168 -4 -7 8 -1 27 13 19 14 40 23 47 21 7 -3 12 -1 11 4 -3 20 2 25 15 13 8 -6 12 -18 9 -25 -6 -17 111 -163 139 -174 18 -6 18 -9 6 -22 -8 -8 -13 -19 -11 -25 2 -6 -27 -36 -64 -66 -129 -105 -294 -284 -324 -353 -10 -23 -26 -49 -51 -84 -20 -26 -24 -21 -8 9 6 10 6 21 1 24 -4 3 -6 18 -3 33 l5 28 -19 -23 -19 -22 -70 87 c-38 49 -69 90 -68 93 1 3 4 14 8 25 5 15 0 12 -20 -10 l-26 -30 13 30 c6 17 20 44 31 60 l19 30 -26 -29 c-42 -50 -143 -235 -185 -341 -89 -224 -121 -381 -128 -625 -10 -326 49 -583 198 -869 33 -63 58 -115 57 -116 -24 -20 -319 -235 -322 -235 -2 0 -26 37 -52 81 -112 192 -216 478 -254 702 -19 110 -76 167 -168 167 -74 0 -131 -43 -152 -115 -14 -49 0 -139 55 -341 45 -163 91 -286 170 -445 124 -250 252 -427 464 -640 159 -159 284 -260 448 -362 668 -419 1518 -492 2261 -196 103 41 300 135 237 113 -11 -4 -28 -7 -37 -8 -9 0 -14 -4 -12 -8 3 -4 0 -8 -5 -8 -6 0 -11 7 -11 15 0 9 -9 19 -19 23 -11 4 -50 44 -87 90 -61 75 -65 84 -52 100 9 9 14 22 11 28 -2 6 19 21 47 34 28 13 54 28 57 33 3 4 -37 -13 -88 -39 -345 -173 -742 -252 -1121 -225 -427 31 -814 171 -1151 417 -88 64 -249 207 -301 268 l-46 54 163 120 162 120 85 -82 c465 -446 1107 -606 1725 -430 49 14 96 33 103 42 6 8 12 11 12 4 0 -6 7 -9 15 -6 11 5 13 10 5 19 -8 9 -8 15 0 20 16 10 12 24 -7 19 -13 -3 -38 21 -88 83 -79 98 -91 137 -46 148 35 9 228 103 266 130 17 11 41 27 55 34 14 6 68 48 120 91 52 44 99 80 103 80 4 0 11 -8 14 -17 13 -37 128 -173 146 -173 15 0 16 -3 6 -21 -9 -17 -8 -20 2 -14 8 6 10 4 3 -6 -57 -91 125 85 217 211 72 98 151 230 194 325 43 93 44 109 4 35 -17 -30 -27 -46 -23 -35 3 11 7 29 8 40 0 11 4 22 8 25 10 8 -2 51 -12 45 -5 -3 -37 30 -71 72 -35 43 -71 86 -81 96 -10 10 -18 27 -18 37 0 11 -4 20 -10 20 -5 0 -10 10 -10 23 0 18 2 19 11 7 8 -12 9 -11 5 5 -3 11 1 59 9 105 59 336 1 678 -165 974 -27 49 -47 93 -43 99 3 5 1 7 -5 3 -6 -3 -20 7 -31 23 -23 31 -27 46 -11 36 16 -10 11 1 -7 16 -15 12 -16 12 -9 -1 5 -8 -15 12 -44 45 -129 145 -233 233 -382 320 -224 133 -440 192 -727 200 -85 3 -156 6 -158 9 -3 2 5 7 16 11 21 6 21 6 -2 29 -12 12 -50 57 -85 99 -34 42 -66 77 -71 77 -5 0 -7 9 -4 20 5 17 0 20 -28 21 -33 1 -33 1 11 14 43 12 23 19 -25 8z m431 -1132 c49 -22 111 -92 124 -140 5 -20 10 -136 10 -258 l0 -223 34 -44 c71 -93 90 -213 52 -324 -24 -70 -100 -153 -174 -189 -49 -23 -69 -27 -142 -27 -99 1 -154 21 -221 81 -134 121 -152 303 -45 453 l35 48 3 239 c3 223 4 241 25 279 24 46 72 90 118 110 44 19 133 17 181 -5z"/>
<path d="M5447 2484 c-51 -102 -125 -220 -207 -328 -72 -95 -255 -297 -263 -290 -2 3 -10 -4 -18 -13 -12 -16 -12 -17 1 -7 8 6 23 10 33 9 10 -2 14 1 11 7 -4 7 -2 8 4 4 7 -4 12 -12 12 -18 0 -20 115 -158 138 -164 27 -7 27 -12 5 -37 -10 -11 -12 -17 -5 -13 24 14 12 -14 -18 -41 -35 -30 -35 -33 -14 -59 15 -18 15 -18 4 3 -9 20 2 34 121 150 171 167 358 399 343 426 -4 7 -4 9 1 5 5 -5 18 7 30 25 34 50 77 127 72 127 -3 0 -23 -31 -46 -70 -45 -76 -59 -89 -38 -37 15 37 11 77 -7 77 -7 0 -37 31 -67 70 -30 38 -60 69 -67 70 -7 0 -12 6 -11 13 1 6 1 23 0 36 -1 24 -1 24 -16 5 -14 -18 -15 -17 -5 8 5 15 19 46 30 69 12 22 20 43 18 45 -2 2 -21 -30 -41 -72z"/>
<path d="M5964 1813 c-98 -145 -210 -280 -353 -426 -108 -110 -132 -140 -122 -150 8 -8 11 -8 9 0 -2 6 2 11 7 12 6 1 10 -5 10 -11 0 -7 2 -15 5 -18 3 -3 34 -40 68 -83 34 -43 62 -75 62 -71 0 5 5 3 12 -4 8 -8 8 -15 -1 -26 -8 -10 -9 -16 -1 -21 6 -3 7 -12 3 -18 -4 -7 34 25 84 70 141 129 369 385 358 403 -3 5 0 12 6 16 8 4 9 3 5 -4 -4 -7 -5 -12 -3 -12 5 0 138 184 152 210 15 28 -11 -4 -70 -88 -33 -46 -62 -85 -66 -87 -3 -3 -2 12 4 33 9 35 7 39 -39 92 -27 30 -64 70 -82 89 -18 19 -31 40 -28 46 2 7 0 17 -6 23 -6 6 -2 22 14 48 36 58 40 64 35 64 -2 0 -30 -39 -63 -87z"/>
</g>
<g id="layer107" fill="#2584fd" stroke="none">
<path d="M3170 6755 c-167 -19 -330 -47 -330 -55 0 -5 -10 -6 -22 -3 -20 4 -21 3 -5 -7 9 -6 27 -8 38 -5 15 5 19 4 15 -4 -4 -6 -15 -11 -24 -12 -14 0 -13 -2 3 -9 14 -6 15 -9 5 -10 -12 -1 -12 -3 1 -8 18 -7 155 -172 143 -172 -3 0 -1 -7 7 -16 10 -13 10 -17 -1 -24 -9 -6 -2 -11 24 -16 21 -3 41 -3 45 2 3 5 24 9 46 9 22 1 111 7 199 14 143 12 330 10 521 -4 l50 -4 -45 13 c-25 8 -36 15 -25 16 13 1 5 7 -23 19 -23 9 -40 19 -38 22 3 3 -36 56 -86 118 -50 63 -85 111 -77 107 8 -4 5 0 -5 8 -11 9 -36 16 -55 17 -32 1 -33 2 -11 8 43 13 -228 9 -350 -4z"/>
<path d="M3405 5980 c4 -7 -21 -9 -77 -6 l-83 5 94 -11 c60 -7 89 -13 80 -19 -11 -7 -10 -9 4 -9 10 0 15 -4 12 -10 -3 -5 -2 -10 4 -10 11 0 156 -180 156 -194 0 -5 7 -12 15 -15 8 -3 16 -14 18 -23 2 -12 -6 -18 -30 -21 -19 -3 -10 -5 22 -4 30 0 62 -3 70 -6 8 -4 47 -8 85 -11 39 -2 77 -6 85 -9 8 -3 62 -15 120 -27 287 -61 581 -194 824 -374 42 -31 78 -56 81 -56 3 0 19 -16 36 -35 17 -19 34 -35 39 -35 4 0 46 -39 93 -87 47 -48 88 -85 91 -82 3 3 -45 54 -107 113 -61 60 -147 142 -189 184 -43 41 -78 71 -78 66 0 -6 6 -16 13 -24 10 -12 9 -12 -5 -1 -10 7 -18 19 -18 27 0 7 -17 25 -37 41 -35 25 -133 122 -133 131 0 6 -212 266 -227 278 -7 7 -13 16 -12 20 6 32 -5 44 -53 59 -29 10 -57 21 -63 26 -13 13 -5 11 60 -11 32 -11 63 -20 69 -19 6 0 -27 14 -74 30 -47 16 -93 28 -103 25 -9 -2 -15 0 -12 4 6 9 -125 40 -270 65 -165 28 -513 45 -500 25z"/>
<path d="M3980 5181 c0 -4 26 -18 59 -30 60 -22 81 -38 85 -66 1 -8 18 -32 37 -53 52 -54 240 -289 279 -347 18 -27 52 -67 75 -87 64 -57 238 -276 296 -372 29 -48 57 -86 64 -86 7 0 80 -82 161 -182 81 -101 155 -188 164 -195 9 -6 22 -31 29 -55 7 -24 18 -46 24 -50 6 -3 10 -22 9 -42 -1 -20 3 -36 8 -36 13 0 13 87 1 94 -5 3 -7 15 -4 26 3 11 2 28 -2 37 -5 10 -7 28 -6 40 1 11 -2 24 -7 27 -5 3 -7 17 -4 31 2 14 0 25 -6 25 -6 0 -8 9 -5 20 3 11 1 20 -5 20 -6 0 -8 9 -5 20 3 11 1 20 -3 20 -5 0 -10 14 -11 31 -3 40 -84 245 -135 339 -105 195 -278 405 -442 539 -127 104 -353 242 -411 253 -11 1 -23 7 -26 11 -3 4 -16 9 -27 10 -12 1 -22 5 -22 10 0 5 -7 7 -15 3 -8 -3 -15 -1 -15 4 0 12 -67 33 -80 25 -5 -3 -10 -1 -10 5 0 7 -7 10 -15 6 -8 -3 -15 -1 -15 4 0 6 -4 10 -10 10 -5 0 -10 -4 -10 -9z"/>
<path d="M3363 4930 c-135 -15 -294 -54 -398 -99 -101 -44 -185 -86 -210 -105 -16 -12 -37 -25 -45 -28 -23 -8 -157 -117 -215 -174 -83 -81 -189 -209 -206 -249 -10 -23 -26 -49 -51 -84 -20 -26 -24 -21 -8 9 6 10 6 21 1 24 -4 3 -6 18 -3 33 l5 28 -19 -23 -19 -22 -70 87 c-38 49 -69 90 -68 93 1 3 4 14 8 25 5 15 0 12 -20 -10 l-26 -30 13 30 c6 17 20 44 31 60 l19 30 -26 -29 c-42 -50 -143 -235 -185 -341 -89 -224 -121 -381 -128 -625 -10 -326 49 -583 198 -869 33 -63 58 -115 57 -116 -24 -20 -319 -235 -322 -235 -2 0 -26 37 -52 81 -112 192 -216 478 -254 702 -19 110 -76 167 -168 167 -74 0 -131 -43 -152 -115 -14 -49 0 -139 55 -341 45 -163 91 -286 170 -445 124 -250 252 -427 464 -640 159 -159 284 -260 448 -362 668 -419 1518 -492 2261 -196 103 41 300 135 237 113 -11 -4 -28 -7 -37 -8 -9 0 -14 -4 -12 -8 3 -4 0 -8 -5 -8 -6 0 -11 7 -11 15 0 9 -9 19 -19 23 -11 4 -50 44 -87 90 -61 75 -65 84 -52 100 9 9 14 22 11 28 -2 6 19 21 47 34 28 13 54 28 57 33 3 4 -37 -13 -88 -39 -345 -173 -742 -252 -1121 -225 -427 31 -814 171 -1151 417 -88 64 -249 207 -301 268 l-46 54 163 120 162 120 85 -82 c465 -446 1107 -606 1725 -430 49 14 96 33 103 42 6 8 12 11 12 4 0 -6 7 -9 15 -6 11 5 13 10 5 19 -8 9 -8 15 0 20 16 10 12 24 -7 19 -13 -3 -38 21 -88 83 -79 98 -91 137 -46 148 32 8 230 103 251 120 8 7 34 24 57 36 65 36 216 165 281 238 60 68 142 175 142 186 0 4 11 21 24 38 28 37 116 218 116 239 0 8 4 18 10 24 19 19 71 252 82 371 27 281 -38 581 -182 837 -27 49 -47 93 -43 99 3 5 1 7 -5 3 -6 -3 -20 7 -31 23 -24 33 -27 46 -8 35 8 -5 8 -2 -2 9 -16 20 -26 23 -15 5 5 -9 2 -9 -9 1 -20 16 -23 36 -4 25 8 -5 7 -2 -2 9 -8 10 -16 15 -19 12 -7 -7 -72 55 -72 69 0 5 15 -3 33 -19 17 -16 -4 7 -48 53 -44 45 -81 82 -84 82 -2 0 4 -9 14 -20 31 -34 5 -22 -43 21 -111 98 -322 214 -477 263 -122 39 -201 55 -326 66 -126 11 -170 11 -276 0z m243 -839 c49 -22 111 -92 124 -140 5 -20 10 -136 10 -258 l0 -223 34 -44 c71 -93 90 -213 52 -324 -24 -70 -100 -153 -174 -189 -49 -23 -69 -27 -142 -27 -99 1 -154 21 -221 81 -134 121 -152 303 -45 453 l35 48 3 239 c3 223 4 241 25 279 24 46 72 90 118 110 44 19 133 17 181 -5z"/>
<path d="M5550 4320 c-13 -8 -9 -28 28 -137 42 -130 70 -242 91 -367 14 -82 30 -115 70 -149 58 -48 170 -41 198 14 7 13 17 23 23 22 11 -3 24 21 34 60 4 19 3 26 -4 22 -5 -3 -10 -17 -10 -30 0 -13 -5 -27 -11 -31 -8 -4 -10 7 -8 39 2 25 1 43 -2 41 -4 -2 -10 13 -14 34 -7 31 -9 33 -14 15 -5 -19 -25 2 -134 138 -71 87 -133 159 -139 159 -5 0 -6 5 -3 10 3 6 2 10 -4 10 -5 0 -26 33 -46 73 -19 39 -33 64 -30 54 3 -11 1 -16 -6 -11 -6 3 -9 15 -6 25 3 11 4 19 4 19 -1 0 -9 -5 -17 -10z"/>
<path d="M5770 3250 c0 -5 -6 -7 -14 -4 -16 6 -48 -34 -39 -49 3 -6 1 -7 -6 -3 -6 4 -9 13 -5 19 3 7 -1 3 -10 -7 -8 -10 -13 -23 -10 -27 3 -5 0 -9 -6 -9 -6 0 -8 -5 -5 -10 5 -8 11 -8 19 -1 10 8 11 4 8 -19 -3 -21 0 -30 9 -31 14 0 144 -155 155 -183 3 -8 14 -18 24 -21 16 -5 18 -14 15 -60 -3 -32 0 -55 5 -55 6 0 11 10 12 23 2 36 3 41 11 55 5 6 6 16 2 21 -3 5 -1 12 4 15 15 10 44 192 37 231 -8 40 -46 89 -87 110 -31 17 -119 20 -119 5z"/>
<path d="M6465 3178 c-3 -18 -7 -58 -10 -88 -6 -76 -59 -328 -89 -424 -14 -44 -23 -83 -20 -88 3 -4 1 -8 -4 -8 -16 0 -33 -72 -20 -87 8 -11 7 -12 -6 -7 -19 7 -21 -7 -3 -25 10 -10 9 -11 -5 -6 -11 4 -18 2 -18 -4 0 -6 6 -11 13 -11 9 0 12 -9 9 -29 -3 -21 3 -35 25 -57 45 -44 113 -130 113 -143 0 -6 6 -11 13 -11 31 0 35 -21 17 -81 -10 -32 -15 -59 -10 -59 9 0 73 145 73 166 0 8 4 14 8 14 7 0 76 182 108 290 52 168 108 422 66 295 l-13 -40 -1 58 c-1 47 -5 60 -18 64 -10 2 -37 30 -61 62 -23 31 -60 75 -80 98 -43 47 -62 83 -62 118 0 37 -18 39 -25 3z"/>
</g>
<g id="layer108" fill="#7638f9" stroke="none">
<path d="M1070 5683 c-276 -295 -530 -720 -666 -1116 -131 -383 -179 -675 -179 -1097 0 -291 13 -418 66 -680 246 -1198 1150 -2155 2348 -2486 146 -40 182 -42 236 -11 73 42 103 130 69 204 -25 52 -70 79 -179 108 -540 144 -973 391 -1356 774 -519 519 -810 1168 -861 1919 -31 463 61 967 253 1393 97 215 235 444 367 608 41 52 70 91 63 86 -9 -5 -8 1 2 21 8 16 12 35 10 42 -3 6 0 12 6 12 6 0 11 7 11 16 0 15 -2 15 -25 0 -24 -16 -25 -16 -87 61 -44 54 -62 84 -61 101 l2 25 -31 -29 -31 -29 23 35 c13 19 39 52 59 73 19 20 32 37 29 37 -3 0 -34 -30 -68 -67z"/>
<path d="M1555 5043 c-167 -208 -318 -477 -404 -719 -55 -154 -111 -385 -118 -490 -5 -72 -3 -86 15 -116 44 -71 151 -100 220 -58 42 26 69 72 82 140 68 359 147 573 308 834 31 50 55 92 54 94 -2 2 7 12 20 23 13 11 17 17 9 13 -9 -4 -12 -2 -9 7 3 8 10 14 16 14 6 0 17 7 24 15 11 12 11 12 -3 2 -9 -6 -19 -9 -22 -5 -11 10 -8 35 2 28 5 -3 13 0 17 6 5 8 3 9 -6 4 -9 -5 -10 -2 -5 14 7 24 -10 29 -19 6 -10 -27 -24 -16 -90 66 -54 66 -64 84 -56 99 12 22 13 40 2 25 -4 -5 -18 -19 -31 -30 -30 -25 -21 -7 27 55 52 67 55 70 50 70 -3 0 -40 -44 -83 -97z"/>
<path d="M3363 4930 c-139 -16 -296 -55 -398 -99 -101 -44 -185 -86 -210 -105 -16 -12 -37 -25 -45 -28 -23 -8 -157 -117 -215 -174 -83 -81 -189 -209 -206 -249 -10 -23 -26 -49 -51 -84 -20 -26 -24 -21 -8 9 6 10 6 21 1 24 -4 3 -6 18 -3 33 l5 28 -19 -23 -19 -22 -70 87 c-38 49 -69 90 -68 93 1 3 4 14 8 25 5 15 0 12 -20 -10 l-26 -30 13 30 c6 17 20 44 31 60 l19 30 -26 -29 c-42 -50 -143 -235 -185 -341 -89 -224 -121 -381 -128 -625 -10 -326 49 -583 198 -869 33 -63 58 -115 57 -116 -24 -20 -319 -235 -322 -235 -2 0 -26 37 -52 81 -112 192 -216 478 -254 702 -19 110 -76 167 -168 167 -74 0 -131 -43 -152 -115 -14 -49 0 -139 55 -341 45 -163 91 -286 170 -445 124 -250 252 -427 464 -640 159 -159 284 -260 448 -362 668 -419 1518 -492 2261 -196 103 41 300 135 237 113 -11 -4 -28 -7 -37 -8 -9 0 -14 -4 -12 -8 3 -4 0 -8 -5 -8 -6 0 -11 7 -11 15 0 9 -9 19 -19 23 -11 4 -50 44 -87 90 -61 75 -65 84 -52 100 9 9 14 22 11 28 -2 6 19 21 47 34 28 13 54 28 57 33 3 4 -37 -13 -88 -39 -345 -173 -742 -252 -1121 -225 -427 31 -814 171 -1151 417 -88 64 -249 207 -301 268 l-46 54 163 120 162 120 85 -82 c465 -446 1107 -606 1725 -430 49 14 96 33 103 42 6 8 12 11 12 4 0 -6 7 -9 15 -6 11 5 13 10 5 19 -8 9 -8 15 0 20 16 10 12 24 -7 19 -13 -3 -38 21 -88 83 -79 98 -91 137 -46 148 32 8 230 103 251 120 8 7 34 24 57 36 65 36 216 165 281 238 60 68 142 175 142 186 0 4 11 21 24 38 28 37 116 218 116 239 0 8 4 18 10 24 5 5 23 61 39 125 91 353 54 703 -109 1025 -183 361 -497 624 -885 740 -161 49 -404 72 -562 54z m243 -839 c49 -22 111 -92 124 -140 5 -20 10 -136 10 -258 l0 -223 34 -44 c71 -93 90 -213 52 -324 -24 -70 -100 -153 -174 -189 -49 -23 -69 -27 -142 -27 -99 1 -154 21 -221 81 -134 121 -152 303 -45 453 l35 48 3 239 c3 223 4 241 25 279 24 46 72 90 118 110 44 19 133 17 181 -5z"/>
<path d="M4854 835 c-376 -194 -783 -300 -1241 -323 -176 -9 -191 -13 -237 -76 -29 -39 -29 -133 0 -173 46 -62 76 -73 198 -73 385 0 849 98 1216 257 144 62 320 153 320 164 0 6 4 8 9 5 4 -3 17 1 27 9 16 13 17 14 2 9 -20 -7 -23 8 -8 36 9 17 7 17 -21 7 -21 -8 -32 -8 -37 -1 -4 5 -33 42 -65 81 -38 47 -55 76 -51 87 4 9 1 16 -6 16 -9 0 -7 7 5 20 10 11 16 19 14 19 -2 -1 -58 -29 -125 -64z"/>
</g>
<g id="layer109" fill="#8827f8" stroke="none">
<path d="M362 4385 c-12 -5 -20 -15 -18 -22 3 -6 1 -13 -3 -15 -10 -4 -55 -190 -75 -313 -33 -200 -41 -306 -41 -565 0 -291 13 -418 66 -680 246 -1198 1150 -2155 2348 -2486 146 -40 182 -42 236 -11 73 42 103 130 69 204 -25 52 -70 79 -179 108 -540 144 -973 391 -1356 774 -519 519 -810 1168 -861 1919 -13 204 -2 442 32 648 10 65 17 121 14 125 -2 4 1 11 6 14 7 4 9 20 5 38 -5 24 -4 28 4 17 9 -13 11 -13 11 3 0 11 -8 17 -21 17 -12 0 -23 8 -26 20 -3 11 -9 18 -13 15 -9 -5 -140 158 -140 175 0 6 -4 9 -9 5 -6 -3 -13 0 -18 8 -6 9 -14 10 -31 2z"/>
<path d="M1134 3243 c-8 -8 -14 -11 -14 -7 0 4 -13 -5 -29 -20 -46 -44 -56 -97 -37 -198 42 -225 118 -449 221 -659 124 -250 252 -427 464 -640 209 -209 396 -347 636 -469 164 -83 482 -199 507 -184 4 3 8 0 8 -7 0 -6 8 -9 20 -6 11 3 20 1 20 -5 0 -5 8 -8 18 -7 9 1 25 -1 35 -6 9 -4 24 -5 32 -1 8 3 15 0 15 -6 0 -6 11 -8 30 -4 17 3 30 1 30 -4 0 -16 37 -11 44 5 5 13 0 17 -20 14 -13 -1 -224 260 -224 278 0 5 -11 15 -24 23 -15 7 -22 18 -19 27 3 7 2 13 -3 12 -5 -1 -29 7 -54 18 -25 11 -52 23 -60 27 -9 3 -5 4 8 2 44 -8 21 10 -51 38 -158 64 -329 159 -470 262 -88 64 -249 207 -301 268 l-46 54 125 92 c69 50 125 96 125 101 0 6 4 8 9 5 5 -3 14 1 21 9 10 12 8 13 -10 10 -16 -3 -20 0 -16 10 3 8 2 14 -2 13 -17 -5 -51 25 -97 86 -27 36 -58 69 -67 72 -11 3 -15 10 -11 17 4 7 8 19 10 27 1 8 14 25 30 37 22 18 25 25 15 35 -11 11 -12 10 -8 -2 4 -10 -14 -29 -54 -58 -33 -24 -60 -48 -60 -53 0 -6 -4 -8 -9 -4 -5 3 -16 -3 -23 -13 -7 -11 -16 -19 -20 -18 -4 0 -39 -23 -77 -51 -39 -29 -73 -53 -75 -53 -10 0 -103 171 -147 269 -45 102 -106 276 -129 371 -6 25 -14 52 -17 60 -3 8 -5 22 -4 32 1 9 -3 19 -8 22 -6 4 -8 13 -5 20 8 21 -13 90 -36 119 -14 18 -27 24 -42 20 -17 -3 -19 -2 -9 5 15 11 -2 27 -19 17 -5 -3 -10 -1 -10 5 0 15 -99 10 -116 -7z"/>
<path d="M3458 503 c-10 -2 -18 -9 -18 -14 0 -6 -4 -8 -9 -5 -15 10 -70 -61 -77 -99 -13 -74 21 -147 87 -180 32 -17 284 -22 293 -6 3 5 34 8 69 6 34 -2 50 -1 34 1 -15 3 -25 10 -21 15 3 6 -2 10 -12 8 -26 -3 -77 19 -70 30 4 5 3 11 -2 13 -21 9 -140 170 -135 183 4 11 -3 15 -27 15 -18 0 -29 4 -25 10 3 6 -4 11 -17 11 -13 1 -6 5 17 9 39 7 38 7 -15 7 -30 1 -63 -1 -72 -4z"/>
</g>
<g id="layer110" fill="#6746fa" stroke="none">
<path d="M1070 5683 c-96 -102 -210 -249 -303 -390 -83 -125 -155 -247 -123 -209 9 11 16 16 16 11 0 -4 10 0 22 11 12 10 19 14 15 8 -8 -14 -18 -68 -10 -61 3 3 34 -30 70 -74 49 -60 69 -78 83 -74 14 4 19 -1 22 -25 3 -16 0 -30 -5 -30 -6 0 -8 -3 -4 -6 3 -4 -1 -20 -9 -36 -9 -17 -14 -31 -12 -33 2 -2 28 42 58 98 80 148 191 319 278 426 41 52 70 91 63 86 -9 -5 -8 1 2 21 8 16 12 35 10 42 -3 6 0 12 6 12 6 0 11 7 11 16 0 15 -2 15 -25 0 -24 -16 -25 -16 -87 61 -44 54 -62 84 -61 101 l2 25 -31 -29 -31 -29 23 35 c13 19 39 52 59 73 19 20 32 37 29 37 -3 0 -34 -30 -68 -67z"/>
<path d="M1555 5043 c-43 -54 -109 -145 -147 -203 -85 -129 -202 -356 -194 -376 3 -8 2 -13 -3 -10 -5 3 -16 -12 -25 -34 -22 -55 -19 -65 4 -15 10 22 19 33 19 25 1 -13 2 -13 11 0 7 11 10 7 10 -17 0 -17 3 -33 8 -35 5 -2 108 -126 139 -167 1 -2 9 2 18 9 12 10 15 10 15 -4 0 -9 4 -16 9 -16 5 0 5 -16 0 -37 -18 -79 -7 -75 20 7 56 165 125 311 219 464 31 50 55 92 54 94 -2 2 7 12 20 23 13 11 17 17 9 13 -9 -4 -12 -2 -9 7 3 8 10 14 16 14 6 0 17 7 24 15 11 12 11 12 -3 2 -9 -6 -19 -9 -22 -5 -11 10 -8 35 2 28 5 -3 13 0 17 6 5 8 3 9 -6 4 -9 -5 -10 -2 -5 14 7 24 -10 29 -19 6 -10 -27 -24 -16 -90 66 -54 66 -64 84 -56 99 12 22 13 40 2 25 -4 -5 -18 -19 -31 -30 -30 -25 -21 -7 27 55 52 67 55 70 50 70 -3 0 -40 -44 -83 -97z"/>
<path d="M3363 4930 c-139 -16 -296 -55 -398 -99 -101 -44 -185 -86 -210 -105 -16 -12 -37 -25 -45 -28 -23 -8 -157 -117 -215 -174 -83 -81 -189 -209 -206 -249 -10 -23 -26 -49 -51 -84 -20 -26 -24 -21 -8 9 6 10 6 21 1 24 -4 3 -6 18 -3 33 l5 28 -19 -23 -19 -22 -70 87 c-38 49 -69 90 -68 93 1 3 4 14 8 25 5 15 0 12 -20 -10 l-26 -30 13 30 c6 17 21 44 31 60 l19 30 -22 -25 c-36 -41 -129 -205 -170 -299 -69 -159 -123 -351 -134 -476 -5 -53 -4 -56 5 -25 l11 35 19 -25 c31 -39 115 -150 161 -212 51 -67 65 -75 79 -45 8 19 9 17 5 -10 -7 -41 3 -71 15 -51 6 8 9 -6 9 -37 0 -66 42 -261 75 -355 72 -199 183 -377 330 -528 150 -156 278 -246 460 -325 136 -60 138 -60 153 -58 6 1 12 -3 12 -9 0 -5 17 -17 38 -25 25 -10 38 -22 39 -36 2 -21 140 -198 200 -256 28 -26 30 -32 15 -38 -9 -3 -46 -4 -82 -1 -64 5 -64 5 -15 -5 89 -17 379 -14 494 6 139 23 313 72 329 92 6 9 12 12 12 5 0 -6 7 -9 15 -6 11 5 13 10 5 19 -8 9 -8 15 0 20 16 10 12 24 -7 19 -13 -3 -38 21 -88 83 -79 98 -91 137 -46 148 32 8 230 103 251 120 8 7 34 24 57 36 65 36 216 165 281 238 60 68 142 175 142 186 0 4 11 21 24 38 28 37 116 218 116 239 0 8 4 18 10 24 5 5 23 61 39 125 91 353 54 703 -109 1025 -183 361 -497 624 -885 740 -161 49 -404 72 -562 54z m243 -839 c49 -22 111 -92 124 -140 5 -20 10 -136 10 -258 l0 -223 34 -44 c71 -93 90 -213 52 -324 -24 -70 -100 -153 -174 -189 -49 -23 -69 -27 -142 -27 -99 1 -154 21 -221 81 -134 121 -152 303 -45 453 l35 48 3 239 c3 223 4 241 25 279 24 46 72 90 118 110 44 19 133 17 181 -5z"/>
<path d="M4485 1533 c-193 -98 -447 -178 -653 -206 -51 -7 -92 -17 -91 -22 1 -6 12 -9 23 -7 17 2 18 1 6 -7 -13 -9 -12 -11 4 -11 15 0 17 -3 9 -11 -9 -9 -1 -26 32 -68 66 -83 110 -131 122 -131 9 0 23 -22 23 -35 0 -1 -17 -6 -37 -10 -21 -4 -32 -10 -25 -12 37 -14 367 75 550 148 103 41 300 135 237 113 -11 -4 -28 -7 -37 -8 -9 0 -14 -4 -12 -8 3 -4 0 -8 -5 -8 -6 0 -11 7 -11 15 0 9 -9 19 -19 23 -11 4 -50 44 -87 90 -61 75 -65 84 -52 100 9 9 14 22 11 28 -2 6 19 21 47 34 28 13 54 28 56 32 7 11 8 12 -91 -39z"/>
<path d="M4854 835 c-133 -68 -334 -150 -476 -194 -78 -24 -87 -29 -64 -35 15 -4 24 -11 21 -16 -3 -5 0 -20 6 -32 22 -40 111 -143 138 -158 41 -24 43 -34 8 -52 -48 -26 -29 -22 90 18 183 61 533 222 533 245 0 6 4 8 9 5 4 -3 17 1 27 9 16 13 17 14 2 9 -20 -7 -23 8 -8 36 9 17 7 17 -21 7 -21 -8 -32 -8 -37 -1 -4 5 -33 42 -65 81 -38 47 -55 76 -51 87 4 9 1 16 -6 16 -9 0 -7 7 5 20 10 11 16 19 14 19 -2 -1 -58 -29 -125 -64z"/>
</g>
<g id="layer111" fill="#9a15f7" stroke="none">
<path d="M226 3465 c1 -121 2 -233 3 -249 1 -64 34 -289 62 -426 246 -1198 1150 -2155 2348 -2486 126 -34 184 -41 210 -25 12 8 8 11 -15 16 -47 11 -103 38 -98 47 3 4 0 8 -7 8 -7 0 -10 3 -6 6 3 3 -37 58 -89 122 -52 64 -94 122 -94 129 0 7 -6 13 -12 13 -9 0 -8 4 2 11 12 9 11 10 -7 6 -14 -3 -20 -1 -17 7 3 8 -12 18 -35 26 -23 7 -43 21 -47 32 -3 12 -12 17 -20 14 -10 -4 -12 -2 -8 5 4 7 1 10 -7 7 -8 -3 -20 2 -28 9 -7 8 -20 12 -27 9 -8 -3 -14 -1 -14 5 0 6 -5 7 -10 4 -6 -3 -10 -2 -10 3 0 5 -32 23 -72 41 -89 39 -275 145 -389 222 -222 148 -485 392 -649 599 -272 343 -466 739 -561 1145 -13 55 -26 101 -30 103 -3 1 -4 14 -1 27 2 14 0 25 -7 25 -5 0 -8 7 -5 15 4 8 3 23 -1 33 -5 9 -7 27 -6 39 1 11 -2 24 -7 27 -5 3 -7 17 -4 31 2 14 -2 32 -9 41 -12 15 -14 14 -20 -7 -7 -24 -7 -23 -8 3 -1 15 -5 29 -10 32 -5 4 -7 -4 -3 -16 5 -22 5 -22 -15 -2 -43 40 -213 258 -214 273 0 10 -5 6 -11 -9 -10 -24 -11 -24 -19 15 -5 22 -14 49 -19 60 -5 11 -11 67 -13 125 -2 58 -2 6 -1 -115z"/>
</g>
<g id="layer112" fill="#a830f9" stroke="none">
<path d="M1150 1176 c91 -98 340 -308 470 -396 63 -42 17 -4 -87 73 -113 84 -227 181 -348 296 -44 42 -60 54 -35 27z"/>
</g>
<g id="layer113" fill="#6e70f8" stroke="none">
<path d="M3363 4930 c-139 -16 -296 -55 -398 -99 -101 -44 -185 -86 -210 -105 -16 -12 -37 -25 -45 -28 -23 -8 -157 -117 -215 -174 -83 -81 -188 -209 -206 -249 -5 -11 -18 -33 -29 -50 -11 -16 -34 -59 -51 -95 -18 -36 -36 -73 -41 -83 -16 -33 -65 -190 -82 -263 -9 -40 -21 -127 -26 -194 -27 -326 57 -640 247 -929 75 -115 278 -317 397 -395 430 -283 968 -322 1426 -103 58 27 112 55 120 62 8 7 34 24 57 36 65 36 216 165 281 238 60 68 142 175 142 186 0 4 11 21 24 38 28 37 116 218 116 239 0 8 4 18 10 24 5 5 23 61 39 125 91 353 54 703 -109 1025 -183 361 -497 624 -885 740 -161 49 -404 72 -562 54z m243 -839 c49 -22 111 -92 124 -140 5 -20 10 -136 10 -258 l0 -223 34 -44 c71 -93 90 -213 52 -324 -24 -70 -100 -153 -174 -189 -49 -23 -69 -27 -142 -27 -99 1 -154 21 -221 81 -134 121 -152 303 -45 453 l35 48 3 239 c3 223 4 241 25 279 24 46 72 90 118 110 44 19 133 17 181 -5z"/>
</g>
<g id="layer114" fill="#9051fa" stroke="none">
<path d="M3365 4930 c-392 -45 -726 -226 -980 -530 -63 -76 -176 -255 -190 -300 -4 -14 -13 -34 -20 -45 -44 -71 -102 -304 -115 -463 -27 -328 56 -641 247 -931 75 -115 278 -317 397 -395 671 -442 1565 -263 2013 403 61 90 153 266 153 291 0 9 4 20 10 26 5 5 23 61 39 125 91 353 54 703 -109 1025 -183 361 -497 624 -885 740 -161 49 -404 72 -560 54z m241 -839 c49 -22 111 -92 124 -140 5 -20 10 -136 10 -258 l0 -223 34 -44 c71 -93 90 -213 52 -324 -24 -70 -100 -153 -174 -189 -49 -23 -69 -27 -142 -27 -99 1 -154 21 -221 81 -134 121 -152 303 -45 453 l35 48 3 239 c3 223 4 241 25 279 24 46 72 90 118 110 44 19 133 17 181 -5z"/>
<path d="M224 3475 c0 -115 2 -161 3 -102 2 59 2 154 0 210 -1 56 -3 8 -3 -108z"/>
</g>
<g id="layer115" fill="#5091fb" stroke="none">
<path d="M3365 4930 c-392 -45 -726 -226 -980 -530 -63 -76 -176 -255 -190 -300 -4 -14 -13 -34 -20 -45 -32 -52 -85 -237 -105 -370 -16 -107 -14 -341 4 -443 18 -99 54 -233 67 -246 5 -6 9 -17 9 -27 0 -21 95 -215 126 -256 13 -17 24 -34 24 -38 0 -15 92 -128 169 -208 80 -83 196 -180 251 -209 14 -7 45 -26 69 -42 98 -63 267 -127 428 -162 570 -123 1169 122 1500 615 61 90 153 266 153 291 0 9 4 20 10 26 5 5 23 61 39 125 91 353 54 703 -109 1025 -183 361 -497 624 -885 740 -161 49 -404 72 -560 54z m241 -839 c49 -22 111 -92 124 -140 5 -20 10 -136 10 -258 l0 -223 34 -44 c71 -93 90 -213 52 -324 -24 -70 -100 -153 -174 -189 -49 -23 -69 -27 -142 -27 -99 1 -154 21 -221 81 -134 121 -152 303 -45 453 l35 48 3 239 c3 223 4 241 25 279 24 46 72 90 118 110 44 19 133 17 181 -5z"/>
</g>
<g id="layer116" fill="#ad53fb" stroke="none">
</g>
<g id="layer117" fill="#7091fb" stroke="none">
<path d="M3405 4933 c-406 -34 -758 -218 -1020 -533 -63 -76 -176 -255 -190 -300 -4 -14 -13 -34 -20 -45 -32 -52 -85 -237 -105 -370 -16 -107 -14 -341 4 -443 18 -99 54 -233 67 -246 5 -6 9 -17 9 -27 0 -21 95 -215 126 -256 13 -17 24 -34 24 -38 0 -15 92 -128 169 -208 80 -83 196 -180 251 -209 14 -7 45 -26 69 -42 98 -63 267 -127 428 -162 221 -47 432 -42 659 17 400 103 758 394 933 755 19 38 38 77 43 88 24 47 78 230 94 316 25 143 24 375 -4 515 -58 293 -183 532 -389 746 -210 217 -472 359 -768 417 -96 19 -297 32 -380 25z m201 -842 c49 -22 111 -92 124 -140 5 -20 10 -136 10 -258 l0 -223 34 -44 c71 -93 90 -213 52 -324 -24 -70 -100 -153 -174 -189 -49 -23 -69 -27 -142 -27 -99 1 -154 21 -221 81 -134 121 -152 303 -45 453 l35 48 3 239 c3 223 4 241 25 279 24 46 72 90 118 110 44 19 133 17 181 -5z"/>
</g>
<g id="layer118" fill="#51aefd" stroke="none">
</g>
<g id="layer119" fill="#9171fb" stroke="none">
<path d="M3297 4919 c-79 -11 -223 -46 -261 -63 -17 -7 -47 -19 -66 -27 -50 -18 -186 -86 -234 -117 -128 -83 -249 -190 -351 -312 -63 -76 -176 -255 -190 -300 -4 -14 -13 -34 -20 -45 -32 -52 -85 -237 -105 -370 -16 -107 -14 -341 4 -443 18 -99 54 -233 67 -246 5 -6 9 -17 9 -27 0 -21 95 -215 126 -256 13 -17 24 -34 24 -38 0 -15 92 -128 169 -208 80 -83 196 -180 251 -209 14 -7 45 -26 69 -42 98 -63 267 -127 428 -162 491 -106 1000 57 1353 433 130 138 225 292 308 498 67 164 101 432 82 625 -37 363 -187 671 -448 922 -210 202 -471 332 -766 383 -96 16 -349 19 -449 4z m309 -828 c49 -22 111 -92 124 -140 5 -20 10 -136 10 -258 l0 -223 34 -44 c71 -93 90 -213 52 -324 -24 -70 -100 -153 -174 -189 -49 -23 -69 -27 -142 -27 -99 1 -154 21 -221 81 -134 121 -152 303 -45 453 l35 48 3 239 c3 223 4 241 25 279 24 46 72 90 118 110 44 19 133 17 181 -5z"/>
</g>
<g id="layer120" fill="#70b0fd" stroke="none">
<path d="M3297 4919 c-79 -11 -223 -46 -261 -63 -17 -7 -47 -19 -66 -27 -19 -7 -71 -30 -114 -52 -342 -169 -608 -480 -726 -847 -56 -176 -65 -237 -65 -450 0 -219 11 -292 72 -470 90 -266 266 -512 484 -679 48 -36 102 -75 120 -86 106 -61 140 -78 227 -113 335 -135 675 -143 1022 -25 80 27 226 97 294 141 356 228 604 608 665 1017 28 194 21 363 -25 555 -66 275 -202 510 -412 712 -210 202 -471 332 -766 383 -96 16 -349 19 -449 4z m309 -828 c49 -22 111 -92 124 -140 5 -20 10 -136 10 -258 l0 -223 34 -44 c71 -93 90 -213 52 -324 -24 -70 -100 -153 -174 -189 -49 -23 -69 -27 -142 -27 -99 1 -154 21 -221 81 -134 121 -152 303 -45 453 l35 48 3 239 c3 223 4 241 25 279 24 46 72 90 118 110 44 19 133 17 181 -5z"/>
</g>
<g id="layer121" fill="#b071fc" stroke="none">
<path d="M3297 4919 c-79 -11 -223 -46 -261 -63 -17 -7 -47 -19 -66 -27 -19 -7 -71 -30 -114 -52 -342 -169 -608 -480 -726 -847 -56 -176 -65 -237 -65 -450 0 -219 11 -292 72 -470 90 -266 266 -512 484 -679 48 -36 102 -75 120 -86 106 -61 140 -78 227 -113 219 -88 442 -123 664 -103 360 33 690 194 938 458 130 138 225 293 308 498 65 162 99 417 81 618 -24 272 -120 524 -285 747 -79 106 -216 242 -314 312 -174 123 -402 217 -614 253 -96 16 -350 19 -449 4z m309 -828 c49 -22 111 -92 124 -140 5 -20 10 -136 10 -258 l0 -223 34 -44 c71 -93 90 -213 52 -324 -24 -70 -100 -153 -174 -189 -49 -23 -69 -27 -142 -27 -99 1 -154 21 -221 81 -134 121 -152 303 -45 453 l35 48 3 239 c3 223 4 241 25 279 24 46 72 90 118 110 44 19 133 17 181 -5z"/>
</g>
<g id="layer122" fill="#c477fc" stroke="none">
</g>
<g id="layer123" fill="#6ac6fe" stroke="none">
</g>
<g id="layer124" fill="#b091fd" stroke="none">
<path d="M3297 4919 c-79 -11 -223 -46 -261 -63 -17 -7 -47 -19 -66 -27 -221 -81 -465 -267 -620 -474 -127 -169 -218 -372 -268 -600 -24 -114 -24 -436 1 -553 64 -296 195 -540 402 -747 447 -448 1109 -558 1669 -278 162 81 292 178 416 310 130 138 225 293 308 498 65 162 99 417 81 618 -24 272 -120 524 -285 747 -79 106 -216 242 -314 312 -174 123 -402 217 -614 253 -96 16 -350 19 -449 4z m309 -828 c49 -22 111 -92 124 -140 5 -20 10 -136 10 -258 l0 -223 34 -44 c71 -93 90 -213 52 -324 -24 -70 -100 -153 -174 -189 -49 -23 -69 -27 -142 -27 -99 1 -154 21 -221 81 -134 121 -152 303 -45 453 l35 48 3 239 c3 223 4 241 25 279 24 46 72 90 118 110 44 19 133 17 181 -5z"/>
</g>
<g id="layer125" fill="#90b3fd" stroke="none">
<path d="M3297 4919 c-79 -11 -223 -46 -261 -63 -17 -7 -47 -19 -66 -27 -19 -7 -71 -30 -114 -52 -397 -196 -682 -575 -773 -1026 -25 -120 -25 -422 0 -542 68 -339 264 -664 521 -863 192 -150 374 -235 621 -292 113 -27 442 -27 565 -1 309 65 570 210 780 434 130 138 225 293 308 498 65 162 99 417 81 618 -24 272 -120 524 -285 747 -79 106 -216 242 -314 312 -174 123 -402 217 -614 253 -96 16 -350 19 -449 4z m309 -828 c49 -22 111 -92 124 -140 5 -20 10 -136 10 -258 l0 -223 34 -44 c71 -93 90 -213 52 -324 -24 -70 -100 -153 -174 -189 -49 -23 -69 -27 -142 -27 -99 1 -154 21 -221 81 -134 121 -152 303 -45 453 l35 48 3 239 c3 223 4 241 25 279 24 46 72 90 118 110 44 19 133 17 181 -5z"/>
</g>
<g id="layer126" fill="#ca94fd" stroke="none">
</g>
<g id="layer127" fill="#cfb2fe" stroke="none">
<path d="M3289 4915 c-490 -80 -891 -382 -1097 -825 -41 -88 -88 -235 -109 -339 -25 -120 -25 -422 0 -542 68 -339 264 -664 521 -863 192 -150 374 -235 621 -292 113 -27 442 -27 565 -1 295 62 533 191 745 402 202 201 335 443 398 724 29 132 31 452 4 581 -63 296 -192 534 -402 746 -202 203 -444 334 -729 396 -121 26 -396 33 -517 13z m317 -824 c49 -22 111 -92 124 -140 5 -20 10 -136 10 -258 l0 -223 34 -44 c71 -93 90 -213 52 -324 -24 -70 -100 -153 -174 -189 -49 -23 -69 -27 -142 -27 -99 1 -154 21 -221 81 -134 121 -152 303 -45 453 l35 48 3 239 c3 223 4 241 25 279 24 46 72 90 118 110 44 19 133 17 181 -5z"/>
</g>
<g id="layer128" fill="#e3b9fd" stroke="none">
</g>
<g id="layer129" fill="#d0e6fe" stroke="none">
<path d="M3287 4915 c-279 -45 -524 -160 -728 -339 -249 -218 -422 -524 -476 -839 -27 -156 -24 -401 6 -541 108 -513 472 -929 953 -1089 172 -58 268 -72 473 -72 211 1 289 12 455 68 219 73 395 183 565 352 202 201 335 443 398 724 29 132 31 452 4 581 -63 296 -192 534 -402 746 -202 203 -444 334 -729 396 -122 26 -396 33 -519 13z m351 -842 c20 -16 51 -49 67 -72 l30 -43 3 -245 3 -246 29 -36 c91 -113 100 -266 25 -395 -32 -55 -57 -77 -130 -117 -55 -30 -67 -33 -150 -33 -108 0 -160 20 -233 88 -57 53 -89 114 -104 195 -15 78 8 168 62 245 l39 55 3 238 c3 223 4 241 25 279 47 88 117 126 221 121 63 -4 78 -8 110 -34z"/>
</g>
<g id="layer130" fill="#fefefe" stroke="none">
<path d="M3375 4924 c-257 -38 -439 -97 -610 -197 -124 -73 -327 -258 -419 -382 -133 -178 -227 -396 -263 -608 -27 -156 -24 -401 6 -541 108 -513 472 -929 953 -1089 172 -57 268 -72 473 -72 120 0 210 5 245 13 125 30 147 35 185 47 65 21 146 54 220 91 85 42 92 46 180 110 309 223 507 527 587 897 29 138 32 418 5 551 -17 84 -58 227 -77 271 -122 279 -287 488 -518 653 -36 25 -79 54 -96 63 -249 134 -438 186 -691 193 -82 3 -163 2 -180 0z m343 -752 c52 -23 109 -96 121 -153 6 -28 11 -145 11 -261 l0 -210 25 -30 c50 -59 68 -109 73 -193 3 -65 0 -91 -17 -136 -19 -51 -92 -149 -110 -149 -4 0 -32 -24 -63 -54 -81 -79 -132 -100 -243 -100 -79 0 -97 3 -149 28 -97 48 -143 102 -181 215 -18 56 -16 169 3 195 5 6 12 22 15 36 4 14 22 44 42 67 l35 41 0 220 c0 178 3 230 17 271 17 55 77 125 116 137 12 4 42 24 66 45 26 23 58 41 80 45 20 3 41 7 46 8 18 6 80 -6 113 -22z"/>
</g>


</svg>